# xmcd
#
# Track frame offsets: 
#        150
#        16512
#        28712
#        42854
#        54582
#        68655
#        81059
#        94646
#        106868
#        117511
#        133561
#        145612
#
# Disc length: 2129 seconds
#
# Revision: 0
# Processed by: cddbd v1.5.2PL0 Copyright (c) Steve Scherf et al.
# Submitted via: ExactAudioCopyFreeDBPlugin 1.0
#
DISCID=8e084f0c
DTITLE=Merle Haggard - Best of Merle Haggard [Direct Source]
DYEAR=2007
DGENRE=Country
TTITLE0=Hungry Eyes
TTITLE1=Okie from Muskogee
TTITLE2=I'm a Lonesome Fugitive
TTITLE3=Carolyn
TTITLE4=Always Wanting You
TTITLE5=If We Make It Through December
TTITLE6=Big City
TTITLE7=You Take Me for Granted
TTITLE8=Old Man from the Mountain
TTITLE9=It's Not Love (But It's Not Bad)
TTITLE10=Things Aren't Funny Anymore
TTITLE11=Natural High
EXTD=This brief budget introduction to Merle Haggard's early years rea
EXTD=lly isn't the best of this American icon's work at all, since it 
EXTD=lacks classics like "Mama Tried," "Branded Man," "The Bottle Let 
EXTD=Me Down," and "The Fightin' Side of Me," to name just a few omiss
EXTD=ions here. It does have "Okie from Muskogee," "Hungry Eyes," and 
EXTD="I'm a Lonesome Fugitive," though, as well as the quietly despera
EXTD=te "If We Make It Through December," which is a beautiful song by
EXTD=any standards, so it's not a complete throwaway set, but there a
EXTD=re much better and more thorough Haggard collections on the marke
EXTD=t. 
EXTT0=
EXTT1=
EXTT2=
EXTT3=
EXTT4=
EXTT5=
EXTT6=
EXTT7=
EXTT8=
EXTT9=
EXTT10=
EXTT11=
PLAYORDER=
